<?xml version="1.0" encoding="utf-8"?>
<!-- Generator: Adobe Illustrator 18.0.0, SVG Export Plug-In . SVG Version: 6.00 Build 0)  -->
<!DOCTYPE svg PUBLIC "-//W3C//DTD SVG 1.1//EN" "http://www.w3.org/Graphics/SVG/1.1/DTD/svg11.dtd">
<svg version="1.1" id="Слой_1" xmlns="http://www.w3.org/2000/svg" xmlns:xlink="http://www.w3.org/1999/xlink" x="0px" y="0px"
	 viewBox="0 0 16 18" enable-background="new 0 0 16 18" xml:space="preserve">
<path fill="#FFFFFF" d="M5,12h9c1.1,0,2-1.1,2-2.2V5.6c0,0,0,0,0,0c0,0,0,0,0,0c0,0,0,0,0,0c0,0,0,0,0,0c0,0,0,0,0,0c0,0,0,0,0,0
	c0,0,0,0,0,0c0,0,0,0,0,0c0,0,0,0,0,0c0,0,0,0,0,0c0,0,0,0,0,0c0,0,0,0,0,0c0,0,0,0,0,0c0,0,0,0,0,0c0,0,0,0,0,0c0,0,0,0,0,0
	c0,0,0,0,0,0c0,0,0,0,0,0c0,0,0,0,0,0c0,0,0,0,0,0c0,0,0,0,0,0c0,0,0,0,0,0c0,0,0,0,0,0c0,0,0,0,0,0c0,0,0,0,0,0c0,0,0,0,0,0
	c0,0,0,0,0,0s0,0,0,0c0,0,0,0,0,0c0,0,0,0,0,0L4,3.7L3.6,1.7c0,0,0,0,0-0.1c0,0,0,0,0,0c0,0,0,0,0,0c0,0,0,0,0,0c0,0,0,0,0,0
	c0,0,0,0,0,0c0,0,0,0,0,0c0,0,0,0,0,0c0,0,0,0,0,0c0,0,0,0,0,0c0,0,0,0,0,0c0,0,0,0,0,0c0,0,0,0,0,0c0,0,0,0,0,0c0,0,0,0,0,0
	c0,0,0,0,0,0c0,0,0,0,0,0c0,0,0,0,0,0c0,0,0,0,0,0c0,0,0,0,0,0c0,0,0,0,0,0c0,0,0,0,0,0L0.7,0C0.4-0.1,0.1,0.1,0,0.3
	C-0.1,0.6,0,0.9,0.3,1l2.3,1L3,4.5v0.3v2.7V10l0,3c0,1,0.3,1.8,1.3,1.9C4.1,15.3,4,15.6,4,16c0,1.1,0.9,2,1.9,2c1.1,0,1.9-0.9,1.9-2
	c0-0.4-0.1-0.7-0.3-1h4.3c-0.2,0.3-0.3,0.6-0.3,1c0,1.1,0.9,2,1.9,2c1.1,0,1.9-0.9,1.9-2c0-1.1-0.9-2-1.9-2h-9C4,14,4,13.6,4,13v-1
	C4.3,12.2,4.6,12,5,12z M14,11H5c-0.6,0-1-0.5-1-1.1V7.6V4.9V4.7L15,6.1v3.7C15,10.4,14.5,11,14,11z"/>
</svg>
